<?xml version="1.0" encoding="UTF-8"?>
<svg xmlns="http://www.w3.org/2000/svg" xmlns:xlink="http://www.w3.org/1999/xlink" viewBox="0 0 60 60" width="60px" height="60px">
<g id="surface35562752">
<path style=" stroke:none;fill-rule:nonzero;fill:rgb(100%,100%,100%);fill-opacity:1;" d="M 53.953125 15.464844 C 53.378906 13.316406 51.683594 11.621094 49.535156 11.046875 C 45.636719 10 30 10 30 10 C 30 10 14.363281 10 10.464844 11.046875 C 8.316406 11.621094 6.621094 13.316406 6.046875 15.464844 C 5 19.363281 5 30 5 30 C 5 30 5 40.636719 6.046875 44.535156 C 6.621094 46.683594 8.316406 48.378906 10.464844 48.953125 C 14.363281 50 30 50 30 50 C 30 50 45.636719 50 49.535156 48.953125 C 51.6875 48.378906 53.378906 46.683594 53.953125 44.535156 C 55 40.636719 55 30 55 30 C 55 30 55 19.363281 53.953125 15.464844 Z M 25 36.496094 L 25 23.503906 C 25 22.542969 26.042969 21.941406 26.875 22.421875 L 38.125 28.917969 C 38.957031 29.398438 38.957031 30.601562 38.125 31.082031 L 26.875 37.578125 C 26.042969 38.058594 25 37.457031 25 36.496094 Z M 25 36.496094 "/>
</g>
</svg>
